#!OML:ASF X:\für Bonn\!DataBase\2005_08_12_Daniel\c3d\Daniel.ASF
:FULLY-SPECIFIED
:DEGREES
129
root 2.59041 17.629 17.1947 -5.36944 17.4505 -1.33332
lowerback 8.35543 3.40331 5.14021
upperback -0.105658 4.80775 -5.93536
thorax -3.85564 2.26226 -9.75533
lowerneck 3.79935 -7.13948 -3.39662
upperneck 15.0738 -10.294 6.07565
head 4.39169 -4.95985 2.11453
rclavicle 1.145e-013 -2.8625e-014
rhumerus 68.0369 -20.9353 -93.2555
rradius 7.88695
rwrist 60.1815
rhand 0.0995651 3.82444
rfingers 7.12502
rthumb 25.6857 -24.4626
lclavicle 1.145e-013 -2.8625e-014
lhumerus -39.1737 46.1181 54.0781
lradius 15.8844
lwrist -48.6776
lhand -10.9404 -6.54991
lfingers 7.12502
lthumb 15.078 22.881
rfemur 10.909 14.5011 23.3003
rtibia 12.3336
rfoot -25.1448 -27.0143
rtoes -11.8992
lfemur -2.89547 -19.4208 -16.7161
ltibia 29.5783
lfoot -21.7466 1.76551
ltoes -16.061
130
root 2.58853 17.6295 17.1929 -5.35788 17.4499 -1.34513
lowerback 8.36353 3.39542 5.14096
upperback -0.0995837 4.79765 -5.93069
thorax -3.85616 2.25734 -9.75013
lowerneck 3.74304 -7.14488 -3.39004
upperneck 15.2085 -10.306 6.06285
head 4.44183 -4.96198 2.10485
rclavicle 1.0287e-013 -6.83819e-014
rhumerus 68.1233 -21.0442 -93.3735
rradius 7.94977
rwrist 60.7224
rhand -0.0960588 4.0659
rfingers 7.12502
rthumb 25.4984 -24.248
lclavicle 1.0287e-013 -6.83819e-014
lhumerus -39.2422 46.1329 54.0071
lradius 15.836
lwrist -48.7051
lhand -10.9488 -6.56582
lfingers 7.12502
lthumb 15.0698 22.8657
rfemur 10.8806 14.517 23.3129
rtibia 12.3421
rfoot -25.1637 -27.0143
rtoes -11.849
lfemur -2.93241 -19.3747 -16.6818
ltibia 29.5868
lfoot -21.7377 1.73157
ltoes -16.1078
131
root 2.58716 17.6295 17.1909 -5.36421 17.44 -1.34542
lowerback 8.39261 3.38741 5.13698
upperback -0.0854223 4.78746 -5.93134
thorax -3.85985 2.25257 -9.74949
lowerneck 3.69563 -7.14913 -3.37691
upperneck 15.3271 -10.3166 6.05571
head 4.48551 -4.96324 2.09652
rclavicle -1.94747e-015 -1.27222e-014
rhumerus 68.1904 -21.1605 -93.4973
rradius 8.0531
rwrist 61.2479
rhand -0.299263 4.35385
rfingers 7.12502
rthumb 25.3037 -23.9878
lclavicle -1.94747e-015 -1.27222e-014
lhumerus -39.3342 46.2174 53.8846
lradius 15.7875
lwrist -48.8157
lhand -10.9372 -6.56007
lfingers 7.12502
lthumb 15.081 22.8706
rfemur 10.8707 14.5125 23.3121
rtibia 12.3511
rfoot -25.1492 -27.0049
rtoes -11.8535
lfemur -2.9383 -19.3517 -16.6736
ltibia 29.594
lfoot -21.7457 1.71554
ltoes -16.1039
132
root 2.58555 17.6295 17.1883 -5.3612 17.4333 -1.35893
lowerback 8.40713 3.37755 5.13162
upperback -0.0753391 4.77464 -5.91693
thorax -3.86161 2.24647 -9.73007
lowerneck 3.652 -7.15198 -3.39782
upperneck 15.461 -10.3273 6.0587
head 4.53553 -4.96568 2.09655
rclavicle -4.1115e-014 -7.95139e-015
rhumerus 68.2439 -21.2749 -93.5999
rradius 8.15674
rwrist 61.7215
rhand -0.537911 4.6543
rfingers 7.12502
rthumb 25.075 -23.7195
lclavicle -4.1115e-014 -7.95139e-015
lhumerus -39.4669 46.3283 53.7506
lradius 15.7452
lwrist -48.96
lhand -10.9413 -6.58501
lfingers 7.12502
lthumb 15.077 22.8459
rfemur 10.8443 14.5251 23.3279
rtibia 12.3608
rfoot -25.1441 -27.013
rtoes -11.835
lfemur -2.96734 -19.319 -16.6407
ltibia 29.6032
lfoot -21.7378 1.68451
ltoes -16.1037
133
root 2.58411 17.6294 17.1868 -5.36521 17.4201 -1.37148
lowerback 8.4254 3.36267 5.12703
upperback -0.0724707 4.75494 -5.90745
thorax -3.874 2.23611 -9.71677
lowerneck 3.63469 -7.1461 -3.41608
upperneck 15.5776 -10.3262 6.06739
head 4.57545 -4.96287 2.09976
rclavicle 3.52167e-014 -3.02153e-014
rhumerus 68.2551 -21.3734 -93.7186
rradius 8.29467
rwrist 62.1386
rhand -0.769453 4.9596
rfingers 7.12502
rthumb 24.8532 -23.445
lclavicle 3.52167e-014 -3.02153e-014
lhumerus -39.592 46.3954 53.6061
lradius 15.6841
lwrist -49.0109
lhand -10.9522 -6.56902
lfingers 7.12502
lthumb 15.0665 22.8627
rfemur 10.8318 14.5465 23.3483
rtibia 12.3705
rfoot -25.1432 -27.0253
rtoes -11.834
lfemur -2.97515 -19.2878 -16.6148
ltibia 29.6117
lfoot -21.7412 1.66146
ltoes -16.1032
134
root 2.58302 17.6298 17.1849 -5.35618 17.4019 -1.3701
lowerback 8.42266 3.34965 5.10027
upperback -0.0534105 4.73539 -5.8954
thorax -3.85944 2.22816 -9.68467
lowerneck 3.57075 -7.14348 -3.42156
upperneck 15.7135 -10.328 6.05815
head 4.62762 -4.96025 2.09318
rclavicle -5.95282e-014 2.8625e-014
rhumerus 68.2764 -21.4825 -93.8326
rradius 8.44429
rwrist 62.5409
rhand -1.05167 5.30398
rfingers 7.12502
rthumb 24.5827 -23.1377
lclavicle -5.95282e-014 2.8625e-014
lhumerus -39.6656 46.4344 53.5416
lradius 15.6469
lwrist -49.0165
lhand -10.9556 -6.517
lfingers 7.12502
lthumb 15.0632 22.915
rfemur 10.8049 14.5376 23.3369
rtibia 12.3756
rfoot -25.1052 -27.0071
rtoes -11.7883
lfemur -2.9964 -19.2625 -16.6048
ltibia 29.6204
lfoot -21.7386 1.65278
ltoes -16.1032
135
root 2.58185 17.6297 17.1832 -5.36037 17.3889 -1.38349
lowerback 8.43849 3.3321 5.09594
upperback -0.0486439 4.71195 -5.89119
thorax -3.86871 2.21613 -9.67665
lowerneck 3.55348 -7.14288 -3.38975
upperneck 15.8247 -10.3309 6.04303
head 4.66249 -4.95785 2.08121
rclavicle 2.34348e-015 2.38542e-014
rhumerus 68.2521 -21.6048 -93.9575
rradius 8.60499
rwrist 62.8137
rhand -1.33848 5.65484
rfingers 7.12502
rthumb 24.3077 -22.8239
lclavicle 2.34348e-015 2.38542e-014
lhumerus -39.7654 46.4691 53.422
lradius 15.5831
lwrist -49.049
lhand -10.978 -6.47142
lfingers 7.12502
lthumb 15.0417 22.9622
rfemur 10.7938 14.5585 23.3561
rtibia 12.392
rfoot -25.1302 -26.9995
rtoes -11.7407
lfemur -3.00685 -19.2322 -16.5787
ltibia 29.6258
lfoot -21.7362 1.63097
ltoes -16.1031
136
root 2.58111 17.63 17.1819 -5.35581 17.3599 -1.39495
lowerback 8.44009 3.31595 5.06538
upperback -0.0491231 4.68803 -5.86155
thorax -3.87985 2.20409 -9.62419
lowerneck 3.5148 -7.12974 -3.42573
upperneck 15.9749 -10.3186 6.02951
head 4.7156 -4.95041 2.07962
rclavicle -3.6522e-014 5.56597e-014
rhumerus 68.1852 -21.7006 -94.0446
rradius 8.79625
rwrist 63.0219
rhand -1.66336 5.97157
rfingers 7.12502
rthumb 23.9962 -22.5486
lclavicle -3.6522e-014 5.56597e-014
lhumerus -39.9341 46.5556 53.2732
lradius 15.5328
lwrist -49.0887
lhand -10.9673 -6.4364
lfingers 7.12502
lthumb 15.052 22.9964
rfemur 10.7703 14.5756 23.3661
rtibia 12.4007
rfoot -25.1157 -26.9937
rtoes -11.803
lfemur -3.01956 -19.2066 -16.558
ltibia 29.6326
lfoot -21.7386 1.63116
ltoes -16.1007
137
root 2.58028 17.6301 17.1803 -5.35534 17.3355 -1.39529
lowerback 8.43854 3.2993 5.0369
upperback -0.0346292 4.66335 -5.85013
thorax -3.87182 2.1931 -9.59175
lowerneck 3.48397 -7.13152 -3.41728
upperneck 16.0802 -10.3231 6.00569
head 4.75178 -4.95047 2.0681
rclavicle -9.6864e-014 1.27222e-014
rhumerus 68.1623 -21.8333 -94.1521
rradius 8.93282
rwrist 63.1613
rhand -2.04924 6.31861
rfingers 7.12502
rthumb 23.6262 -22.2498
lclavicle -9.6864e-014 1.27222e-014
lhumerus -40.0558 46.6381 53.1341
lradius 15.4673
lwrist -49.1427
lhand -10.9875 -6.4103
lfingers 7.12502
lthumb 15.0326 23.024
rfemur 10.7526 14.5891 23.3653
rtibia 12.41
rfoot -25.1009 -26.9875
rtoes -11.8074
lfemur -3.02821 -19.1795 -16.55
ltibia 29.6398
lfoot -21.7379 1.62625
ltoes -16.1007
138
root 2.57917 17.6298 17.179 -5.35002 17.3087 -1.40788
lowerback 8.42484 3.2788 5.01051
upperback -0.0268519 4.63348 -5.83152
thorax -3.86549 2.17915 -9.55148
lowerneck 3.44297 -7.12328 -3.41582
upperneck 16.217 -10.315 5.978
head 4.79887 -4.94402 2.05622
rclavicle 2.75783e-014 4.29375e-014
rhumerus 68.0923 -21.9632 -94.2546
rradius 9.09952
rwrist 63.1862
rhand -2.49071 6.6521
rfingers 7.12502
rthumb 23.2027 -21.9703
lclavicle 2.75783e-014 4.29375e-014
lhumerus -40.145 46.6471 53.0651
lradius 15.4291
lwrist -49.092
lhand -11.009 -6.3078
lfingers 7.12502
lthumb 15.0118 23.128
rfemur 10.7291 14.6161 23.3818
rtibia 12.4181
rfoot -25.0952 -26.9907
rtoes -11.8012
lfemur -3.04839 -19.1325 -16.5153
ltibia 29.6474
lfoot -21.7394 1.58586
ltoes -16.0537
139
root 2.57881 17.6299 17.1773 -5.34955 17.2776 -1.40753
lowerback 8.42086 3.26603 4.97949
upperback -0.014997 4.61374 -5.8168
thorax -3.85831 2.17055 -9.51431
lowerneck 3.39844 -7.12118 -3.44191
upperneck 16.3532 -10.3201 5.98678
head 4.85028 -4.94374 2.0591
rclavicle 1.32776e-013 -3.18055e-015
rhumerus 68.0386 -22.11 -94.3475
rradius 9.20842
rwrist 63.112
rhand -3.03311 6.96837
rfingers 7.12502
rthumb 22.6822 -21.7186
lclavicle 1.32776e-013 -3.18055e-015
lhumerus -40.2323 46.6691 52.9958
lradius 15.3788
lwrist -49.0901
lhand -11.0293 -6.23838
lfingers 7.12502
lthumb 14.9923 23.1989
rfemur 10.7108 14.6226 23.3755
rtibia 12.4281
rfoot -25.0821 -26.9723
rtoes -11.8146
lfemur -3.05309 -19.105 -16.5114
ltibia 29.6552
lfoot -21.7415 1.58812
ltoes -16.0538
140
root 2.5783 17.6296 17.1762 -5.36787 17.2433 -1.42179
lowerback 8.41832 3.23503 4.93859
upperback 0.00589813 4.56935 -5.78219
thorax -3.84961 2.15013 -9.44691
lowerneck 3.33914 -7.10377 -3.46844
upperneck 16.4853 -10.3002 5.96704
head 4.90021 -4.93259 2.05392
rclavicle 2.01052e-014 -1.90833e-014
rhumerus 67.9755 -22.218 -94.4402
rradius 9.3428
rwrist 62.9837
rhand -3.57098 7.33147
rfingers 7.12502
rthumb 22.1659 -21.4177
lclavicle 2.01052e-014 -1.90833e-014
lhumerus -40.388 46.7883 52.8447
lradius 15.3183
lwrist -49.1556
lhand -11.0685 -6.16218
lfingers 7.12502
lthumb 14.9545 23.2779
rfemur 10.7168 14.6592 23.3975
rtibia 12.4359
rfoot -25.0976 -26.9623
rtoes -11.7599
lfemur -3.03813 -19.0779 -16.4964
ltibia 29.6628
lfoot -21.7372 1.59003
ltoes -16.0039
